<svg id="Capa_1"  enable-background="new 0 0 512 512" height="512" viewBox="0 0 512 512" width="512"
     xmlns="http://www.w3.org/2000/svg">
    <g>
        <path d="m294.993 316.822-23.879-.225v-45.46h-30v75.178l53.596.506z"/>
        <path d="m426.065 270.512c.275-.267.559-.518.831-.79 16.308-16.309 16.308-42.844 0-59.153l-44.117-44.117c-5.486-5.486-12.131-9.118-19.153-10.913 4.351-12.187 6.636-25.122 6.636-38.304 0-5.424-.389-10.758-1.124-15.982 1.528.139 3.072.221 4.636.221 27.977 0 50.737-22.761 50.737-50.737s-22.761-50.737-50.738-50.737c-20.084 0-37.479 11.731-45.696 28.7-19.651-16.003-44.704-25.612-71.964-25.612-27.326 0-52.437 9.656-72.11 25.731-8.192-17.034-25.621-28.819-45.752-28.819-27.977 0-50.737 22.76-50.737 50.737s22.761 50.737 50.737 50.737c1.634 0 3.248-.085 4.843-.237-.737 5.229-1.126 10.568-1.126 15.997 0 13.158 2.278 26.075 6.618 38.248-7.1 1.776-13.822 5.429-19.363 10.969l-44.118 44.118c-16.309 16.309-16.308 42.845.001 59.153.327.327.668.633 1 .953-6.989 19.463-10.535 39.861-10.535 60.781 0 25.373 5.154 49.787 15.305 72.713-6.472 10.622-10.252 23.303-10.252 36.922 0 37.264 28.202 67.581 62.866 67.581 13.932 0 26.814-4.904 37.247-13.181 23.521 10.822 49.366 16.51 75.377 16.51 26.018 0 51.861-5.684 75.385-16.509 10.432 8.276 23.314 13.18 37.245 13.18 34.664 0 62.866-30.317 62.866-67.581 0-13.62-3.78-26.302-10.253-36.924 10.15-22.923 15.302-47.335 15.302-72.711 0-21-3.567-41.443-10.594-60.944zm-19.406 60.944c0 17.263-2.864 33.984-8.506 49.929-8.305-4.747-17.711-7.538-27.691-7.828 4.849-13.127 7.5-27.31 7.5-42.101 0-14.196-2.457-27.824-6.942-40.503 1.413.082 2.827.123 4.242.123 8.346 0 16.689-1.428 24.638-4.264 4.483 14.378 6.759 29.33 6.759 44.644zm-104.37-112.754c-14.248-5.857-29.84-9.094-46.175-9.094-16.429 0-32.095 3.292-46.409 9.215.101-9.759-1.741-19.53-5.518-28.686 16.547-6.122 33.947-9.226 51.927-9.226 17.9 0 35.233 3.082 51.725 9.156-3.781 9.138-5.635 18.892-5.55 28.635zm-138.022 112.754c0-50.645 41.202-91.848 91.847-91.848s91.848 41.203 91.848 91.848-41.203 91.847-91.848 91.847-91.847-41.202-91.847-91.847zm241.416-99.674c4.611 4.612 4.611 12.115 0 16.727-16.775 16.774-44.069 16.774-60.845-.001-8.126-8.126-12.601-18.93-12.601-30.422s4.476-22.296 12.602-30.422c4.611-4.611 12.115-4.611 16.727 0zm-31.91-201.782c11.435 0 20.737 9.302 20.737 20.737s-9.303 20.737-20.737 20.737-20.737-9.303-20.737-20.737 9.303-20.737 20.737-20.737zm-117.659 3.088c46.399 0 84.147 37.748 84.147 84.147 0 17.006-5.145 33.464-14.646 47.366-.059.052-.119.101-.178.153-21.947-9.184-45.212-13.842-69.323-13.842-24.14 0-47.416 4.67-69.37 13.868-9.58-13.941-14.776-30.47-14.776-47.544-.001-46.4 37.747-84.148 84.146-84.148zm-138.6 17.649c0-11.435 9.303-20.737 20.737-20.737s20.737 9.302 20.737 20.737-9.303 20.737-20.737 20.737-20.737-9.303-20.737-20.737zm-11.197 181.046 44.118-44.118c2.306-2.306 5.335-3.458 8.363-3.458s6.058 1.153 8.363 3.458c16.774 16.775 16.774 44.069 0 60.844-16.776 16.774-44.07 16.774-60.845 0-4.61-4.612-4.61-12.115.001-16.726zm30.423 59.327c1.494 0 2.981-.046 4.46-.134-4.479 12.672-6.933 26.293-6.933 40.481 0 14.791 2.652 28.973 7.5 42.101-9.98.291-19.385 3.083-27.69 7.83-5.643-15.948-8.507-32.671-8.507-49.932 0-15.258 2.255-30.177 6.715-44.526 7.748 2.746 15.991 4.18 24.455 4.18zm6.75 187.561c-18.122 0-32.866-16.859-32.866-37.581s14.744-37.581 32.866-37.581 32.865 16.858 32.865 37.581-14.743 37.581-32.865 37.581zm56.329-7.622c3.971-8.594 6.282-18.219 6.499-28.393 15.211 6.838 32.066 10.648 49.796 10.648 17.732 0 34.589-3.81 49.802-10.65.217 10.175 2.527 19.799 6.498 28.394-17.807 7.184-36.99 10.952-56.3 10.952-19.305 0-38.49-3.767-56.295-10.951zm168.925 7.622c-18.122 0-32.865-16.859-32.865-37.581s14.743-37.581 32.865-37.581 32.866 16.858 32.866 37.581-14.744 37.581-32.866 37.581z"/>
        <path d="m210.897 75.79h30.097v29.131h-30.097z"/>
        <path d="m271.262 104.92h-30.268l.193 29.116h30.075z"/>
        <path d="m271.262 75.79h30.075v29.131h-30.075z" />
    </g>
</svg>
