<svg id="Layer_1" height="512" viewBox="0 0 512 512" width="512" xmlns="http://www.w3.org/2000/svg" data-name="Layer 1"><path d="m29.679 253.662h174.31v120.738a26.029 26.029 0 0 0 26 26h233.575a26.029 26.029 0 0 0 26-26v-154.095a6 6 0 0 0 -6-6h-453.885a19.679 19.679 0 1 0 0 39.357zm59.17-12v-15.357h115.14v15.357zm388.715 132.738a14.015 14.015 0 0 1 -14 14h-233.575a14.016 14.016 0 0 1 -14-14v-148.095h261.575zm-447.885-148.095h47.17v15.357h-47.17a7.679 7.679 0 1 1 0-15.357z"/><path d="m496 189.434h-19.2a55.817 55.817 0 0 0 -55.413-49.742h-149.221a55.983 55.983 0 0 0 -55.409 49.742h-19.2a6 6 0 0 0 0 12h298.443a6 6 0 0 0 0-12zm-223.834-37.742h149.223a43.8 43.8 0 0 1 43.319 37.742h-235.857a43.931 43.931 0 0 1 43.315-37.742z"/><path d="m328.124 111.6a6 6 0 0 0 0 12h37.306a6 6 0 0 0 0-12z"/><path d="m241.374 320.121a6 6 0 0 0 6-6v-68.841a6 6 0 0 0 -12 0v68.841a6 6 0 0 0 6 6z"/><path d="m241.374 376.512a6 6 0 0 0 6-6v-19.986a6 6 0 0 0 -12 0v19.986a6 6 0 0 0 6 6z"/></svg>